# xmcd CD database file
#
# Track frame offsets:
#	150
#	3002
#	27587
#	44937
#
# Disc length: 924 seconds
#
# Revision: 1
# Processed by: cddbd v1.5.2PL0 Copyright (c) Steve Scherf et al.
# Submitted via: CDex 1.70beta3
#
DISCID=2d039a04
DTITLE=豊嶋真千子 - センチメンタルジャーニー 杉原真奈美/翼を広げて
DYEAR=1998
DGENRE=Anime
TTITLE0=翼を広げて～Prologue～
TTITLE1=翼を広げて
TTITLE2=My sweet memories～翼を広げて～
TTITLE3=翼を広げて(オリジナル・カラオケ)
EXTD=YEAR: 1998
EXTT0=
EXTT1=
EXTT2=
EXTT3=
PLAYORDER=
